<svg xmlns="http://www.w3.org/2000/svg" viewBox="0 0 1000 500" fill="none" stroke="currentColor" stroke-width="0.5">
  <!-- North America -->
  <path d="M165 120 L180 95 L210 85 L240 90 L260 100 L270 120 L265 145 L255 165 L240 175 L225 185 L210 200 L195 210 L180 205 L165 190 L155 170 L150 150 L155 135 Z" opacity="0.4"/>
  <path d="M170 210 L185 215 L200 225 L210 245 L205 265 L190 280 L175 275 L165 260 L160 240 L165 220 Z" opacity="0.4"/>

  <!-- South America -->
  <path d="M240 290 L260 280 L280 290 L290 310 L295 340 L290 370 L280 400 L265 420 L250 430 L235 420 L225 400 L220 370 L225 340 L230 310 Z" opacity="0.4"/>

  <!-- Europe -->
  <path d="M440 90 L460 85 L480 90 L500 100 L510 115 L505 130 L490 140 L475 145 L460 140 L445 130 L435 115 L440 100 Z" opacity="0.4"/>

  <!-- Africa -->
  <path d="M460 175 L480 170 L510 175 L530 190 L540 220 L535 260 L525 300 L510 330 L490 350 L470 345 L450 325 L440 290 L445 250 L450 210 L455 185 Z" opacity="0.4"/>

  <!-- Asia -->
  <path d="M520 80 L560 70 L610 75 L660 85 L710 95 L750 110 L780 130 L790 155 L780 180 L755 195 L720 200 L680 195 L640 185 L600 175 L560 165 L530 150 L515 125 L520 100 Z" opacity="0.4"/>
  <path d="M560 200 L590 195 L620 205 L645 220 L660 245 L655 270 L635 285 L605 280 L575 265 L555 240 L555 215 Z" opacity="0.4"/>

  <!-- Southeast Asia / Indonesia -->
  <path d="M700 230 L730 225 L760 235 L780 255 L775 280 L755 295 L725 290 L700 275 L690 250 Z" opacity="0.4"/>

  <!-- Australia -->
  <path d="M770 330 L810 320 L850 330 L875 355 L880 390 L865 420 L835 435 L800 430 L770 410 L755 380 L760 350 Z" opacity="0.4"/>

  <!-- UK/Ireland -->
  <path d="M430 105 L438 100 L445 105 L443 115 L435 118 L428 112 Z" opacity="0.4"/>

  <!-- Japan -->
  <path d="M820 140 L830 130 L840 135 L845 150 L840 165 L830 170 L820 160 L818 148 Z" opacity="0.4"/>

  <!-- New Zealand -->
  <path d="M900 400 L910 395 L915 405 L912 420 L905 425 L898 415 Z" opacity="0.4"/>

  <!-- Greenland -->
  <path d="M300 50 L330 45 L355 55 L365 75 L355 95 L335 100 L310 95 L295 80 L295 65 Z" opacity="0.4"/>

  <!-- Madagascar -->
  <path d="M555 335 L565 330 L572 340 L570 360 L562 370 L552 365 L550 350 Z" opacity="0.4"/>
</svg>
