<svg xmlns="http://www.w3.org/2000/svg" viewBox="0 0 800 450" fill="none">
  <rect width="800" height="450" fill="#1a1a2e"/>
  <defs>
    <linearGradient id="grad1" x1="0%" y1="0%" x2="100%" y2="100%">
      <stop offset="0%" style="stop-color:#3B82F6;stop-opacity:0.8"/>
      <stop offset="100%" style="stop-color:#1e40af;stop-opacity:0.4"/>
    </linearGradient>
  </defs>
  <!-- Abstract grid pattern representing assessment/learning -->
  <g opacity="0.6">
    <rect x="50" y="80" width="120" height="80" rx="8" fill="url(#grad1)"/>
    <rect x="190" y="80" width="120" height="80" rx="8" fill="url(#grad1)" opacity="0.7"/>
    <rect x="330" y="80" width="120" height="80" rx="8" fill="url(#grad1)" opacity="0.5"/>
    <rect x="50" y="180" width="120" height="80" rx="8" fill="url(#grad1)" opacity="0.5"/>
    <rect x="190" y="180" width="120" height="80" rx="8" fill="url(#grad1)" opacity="0.8"/>
    <rect x="330" y="180" width="120" height="80" rx="8" fill="url(#grad1)" opacity="0.6"/>
    <rect x="50" y="280" width="120" height="80" rx="8" fill="url(#grad1)" opacity="0.4"/>
    <rect x="190" y="280" width="120" height="80" rx="8" fill="url(#grad1)" opacity="0.6"/>
    <rect x="330" y="280" width="120" height="80" rx="8" fill="url(#grad1)" opacity="0.9"/>
  </g>
  <!-- Decorative elements -->
  <circle cx="600" cy="150" r="80" stroke="#3B82F6" stroke-width="2" fill="none" opacity="0.4"/>
  <circle cx="650" cy="200" r="120" stroke="#3B82F6" stroke-width="1" fill="none" opacity="0.2"/>
  <circle cx="700" cy="300" r="60" fill="#3B82F6" opacity="0.1"/>
</svg>
