<svg xmlns="http://www.w3.org/2000/svg" viewBox="0 0 800 450" fill="none">
  <rect width="800" height="450" fill="#1a1a2e"/>
  <defs>
    <linearGradient id="grad3" x1="0%" y1="0%" x2="100%" y2="100%">
      <stop offset="0%" style="stop-color:#8b5cf6;stop-opacity:0.8"/>
      <stop offset="100%" style="stop-color:#6d28d9;stop-opacity:0.4"/>
    </linearGradient>
  </defs>
  <!-- AI/Neural network pattern -->
  <g opacity="0.7">
    <!-- Nodes -->
    <circle cx="200" cy="150" r="20" fill="url(#grad3)"/>
    <circle cx="200" cy="300" r="20" fill="url(#grad3)"/>
    <circle cx="400" cy="120" r="20" fill="url(#grad3)"/>
    <circle cx="400" cy="225" r="25" fill="url(#grad3)"/>
    <circle cx="400" cy="330" r="20" fill="url(#grad3)"/>
    <circle cx="600" cy="150" r="20" fill="url(#grad3)"/>
    <circle cx="600" cy="300" r="20" fill="url(#grad3)"/>
    <!-- Connections -->
    <line x1="220" y1="150" x2="380" y2="120" stroke="#8b5cf6" stroke-width="1.5" opacity="0.5"/>
    <line x1="220" y1="150" x2="375" y2="225" stroke="#8b5cf6" stroke-width="1.5" opacity="0.5"/>
    <line x1="220" y1="300" x2="375" y2="225" stroke="#8b5cf6" stroke-width="1.5" opacity="0.5"/>
    <line x1="220" y1="300" x2="380" y2="330" stroke="#8b5cf6" stroke-width="1.5" opacity="0.5"/>
    <line x1="420" y1="120" x2="580" y2="150" stroke="#8b5cf6" stroke-width="1.5" opacity="0.5"/>
    <line x1="425" y1="225" x2="580" y2="150" stroke="#8b5cf6" stroke-width="1.5" opacity="0.5"/>
    <line x1="425" y1="225" x2="580" y2="300" stroke="#8b5cf6" stroke-width="1.5" opacity="0.5"/>
    <line x1="420" y1="330" x2="580" y2="300" stroke="#8b5cf6" stroke-width="1.5" opacity="0.5"/>
  </g>
  <!-- Data flow particles -->
  <circle cx="300" cy="135" r="3" fill="#c4b5fd"/>
  <circle cx="500" cy="185" r="3" fill="#c4b5fd"/>
  <circle cx="300" cy="260" r="3" fill="#c4b5fd"/>
  <circle cx="500" cy="270" r="3" fill="#c4b5fd"/>
</svg>
