<?xml version="1.0" encoding="utf-8"?>
<!-- Generator: Adobe Illustrator 15.0.0, SVG Export Plug-In . SVG Version: 6.00 Build 0)  -->
<!DOCTYPE svg PUBLIC "-//W3C//DTD SVG 1.1//EN" "http://www.w3.org/Graphics/SVG/1.1/DTD/svg11.dtd">
<svg version="1.1" id="Layer_1" xmlns="http://www.w3.org/2000/svg" xmlns:xlink="http://www.w3.org/1999/xlink" x="0px" y="0px"
	 width="299.999px" height="101.67px" viewBox="-103.666 0 299.999 101.67" enable-background="new -103.666 0 299.999 101.67"
	 xml:space="preserve">
<path fill="none" stroke="#E44232" stroke-width="0.8093" d="M-103.666,23.069"/>
<path fill="#1D1D1B" d="M-102.057,101.414V85.931h5.833c1.182,0,2.115,0.174,2.792,0.434c0.76,0.332,1.353,0.845,1.693,1.433
	c0.42,0.681,0.673,1.351,0.673,2.112c0,0.588-0.253,1.268-0.589,1.865c-0.337,0.588-0.933,1.012-1.612,1.35
	c0.933,0.335,1.612,0.759,2.118,1.43c0.507,0.68,0.76,1.444,0.76,2.371c0,0.68-0.081,1.359-0.42,2.029
	c-0.34,0.591-0.68,1.102-1.186,1.438c-0.42,0.336-1.02,0.596-1.693,0.752c-0.68,0.182-1.437,0.264-2.454,0.264h-5.915
	 M188.141,101.414v-6.599l-6.008-8.885h2.538l3.038,4.657c0.598,0.849,1.105,1.776,1.611,2.621c0.425-0.845,1.017-1.687,1.695-2.71
	l2.955-4.564h2.362l-6.165,8.885v6.598h-2.029v-0.003H188.141z M169.361,101.414V87.715h-5.074v-1.782h12.263v1.782h-5.069v13.699
	H169.361z M156.755,101.414h-2.114V85.931h2.114V101.414z M134.088,96.422l1.95-0.168c0.079,0.759,0.247,1.433,0.588,1.94
	c0.342,0.513,0.851,0.852,1.612,1.187c0.674,0.339,1.524,0.421,2.365,0.421c0.762,0,1.432-0.078,2.029-0.328
	c0.67-0.185,1.094-0.517,1.354-0.937c0.335-0.421,0.502-0.851,0.502-1.354c0-0.42-0.167-0.844-0.42-1.273
	c-0.342-0.336-0.766-0.676-1.436-0.934c-0.43-0.164-1.353-0.422-2.795-0.748c-1.353-0.342-2.361-0.602-2.949-0.931
	c-0.769-0.43-1.274-0.851-1.698-1.44c-0.335-0.594-0.506-1.271-0.506-1.947c0-0.762,0.253-1.518,0.677-2.197
	c0.424-0.679,1.094-1.186,1.947-1.527c0.845-0.334,1.774-0.508,2.782-0.508c1.195,0,2.213,0.174,3.048,0.508
	c0.933,0.34,1.612,0.93,2.036,1.609c0.509,0.76,0.762,1.6,0.762,2.447l-1.95,0.18c-0.082-1.023-0.431-1.691-1.101-2.21
	c-0.588-0.499-1.441-0.752-2.706-0.752c-1.183,0-2.112,0.253-2.706,0.681c-0.506,0.416-0.851,1.008-0.851,1.6
	c0,0.595,0.263,1.012,0.591,1.436c0.431,0.342,1.445,0.68,3.137,1.1c1.685,0.343,2.785,0.681,3.465,0.931
	c0.848,0.424,1.523,1.021,1.947,1.608c0.427,0.674,0.677,1.354,0.677,2.201c0,0.848-0.25,1.604-0.677,2.364
	c-0.506,0.677-1.179,1.271-2.111,1.694c-0.854,0.421-1.862,0.591-2.96,0.591c-1.359,0-2.541-0.17-3.56-0.591
	c-0.923-0.428-1.688-1.018-2.194-1.855C134.432,98.372,134.088,97.438,134.088,96.422z M114.047,101.414V85.931h6.939
	c1.35,0,2.361,0.09,3.127,0.434c0.677,0.246,1.265,0.753,1.688,1.433c0.42,0.681,0.683,1.524,0.683,2.362
	c0,1.104-0.339,2.039-1.113,2.794c-0.67,0.674-1.764,1.18-3.297,1.433c0.598,0.256,1.021,0.51,1.273,0.762
	c0.595,0.51,1.18,1.188,1.691,2.033l2.707,4.229h-2.628l-2.023-3.218c-0.597-0.93-1.106-1.687-1.441-2.109
	c-0.42-0.506-0.765-0.85-1.094-1.105c-0.256-0.164-0.601-0.336-0.93-0.424c-0.259,0-0.601,0-1.106,0h-2.364v6.856h-2.112V101.414z
	 M116.16,92.786h4.4c0.923,0,1.688-0.168,2.194-0.335c0.512-0.175,0.933-0.509,1.186-0.931c0.249-0.424,0.424-0.848,0.424-1.358
	c0-0.763-0.253-1.351-0.845-1.854c-0.512-0.428-1.359-0.678-2.459-0.678h-4.904v5.156H116.16z M94.503,101.414V85.931h11.255v1.783
	h-9.137v4.736h8.542v1.854h-8.542v5.244h9.472v1.865L94.503,101.414L94.503,101.414z M79.366,101.414l-6-15.481h2.197l4.056,11.254
	c0.345,0.934,0.595,1.773,0.854,2.537c0.247-0.846,0.5-1.691,0.845-2.537l4.145-11.254h2.112l-6.09,15.481H79.366z M66.258,101.414
	h-2.032V85.931h2.032V101.414z M43.083,101.414V85.931h2.113l8.125,12.188V85.931h1.941v15.482h-2.03l-8.207-12.182v12.182
	L43.083,101.414L43.083,101.414z M32.507,85.931h2.11v8.971c0,1.522-0.171,2.791-0.588,3.718c-0.336,0.856-0.933,1.608-1.865,2.202
	c-0.926,0.596-2.11,0.849-3.632,0.849c-1.434,0-2.623-0.253-3.555-0.767c-0.931-0.502-1.612-1.178-2.03-2.104
	c-0.34-1.019-0.593-2.284-0.593-3.896v-8.969h2.112v8.969c0,1.271,0.087,2.287,0.34,2.963c0.253,0.595,0.68,1.098,1.27,1.43
	c0.677,0.344,1.356,0.51,2.286,0.51c1.518,0,2.537-0.33,3.21-1.01c0.68-0.677,0.93-1.949,0.93-3.895v-8.971H32.507z M2.312,101.414
	V87.715h-5.079v-1.782H9.499v1.782H4.433v13.699H2.312z M-10.284,101.414h-2.122V85.931h2.118v15.482L-10.284,101.414
	L-10.284,101.414z M-32.194,101.414V85.931h11.162v1.783h-9.132v4.736h8.542v1.854h-8.542v5.244h9.555v1.865L-32.194,101.414
	L-32.194,101.414z M-51.819,101.414v-1.865l7.955-9.978c0.591-0.678,1.1-1.356,1.604-1.856h-8.626v-1.782h11.078v1.782
	l-8.708,10.825l-0.933,1.012h9.903v1.865h-12.273V101.414z M-71.273,101.414V85.931h6.854c1.35,0,2.45,0.09,3.127,0.434
	c0.765,0.246,1.353,0.753,1.781,1.433c0.424,0.681,0.591,1.524,0.591,2.362c0,1.104-0.34,2.039-1.017,2.794
	c-0.754,0.674-1.854,1.18-3.299,1.433c0.509,0.256,0.93,0.51,1.186,0.762c0.593,0.51,1.186,1.188,1.69,2.033l2.703,4.229h-2.531
	l-2.035-3.218c-0.676-0.93-1.097-1.687-1.521-2.109c-0.424-0.506-0.76-0.85-1.013-1.105c-0.337-0.164-0.68-0.336-0.93-0.424
	c-0.256,0-0.68,0-1.187,0h-2.365v6.856h-2.036v0.004H-71.273z M-69.241,92.786h4.401c0.925,0,1.687-0.168,2.197-0.335
	c0.506-0.175,0.923-0.509,1.183-0.931c0.336-0.424,0.423-0.848,0.423-1.358c0-0.763-0.256-1.351-0.757-1.854
	c-0.512-0.428-1.36-0.678-2.539-0.678h-4.908V92.786z M-80.065,101.414h-2.036V85.931h2.036V101.414z M-100.03,92.451h3.386
	c0.923,0,1.522-0.087,1.952-0.175c0.501-0.17,0.926-0.42,1.179-0.844c0.248-0.336,0.424-0.76,0.424-1.354
	c0-0.51-0.176-0.934-0.424-1.352c-0.253-0.334-0.596-0.59-1.013-0.765c-0.512-0.168-1.27-0.25-2.371-0.25h-3.133V92.451z
	 M-100.03,99.549h3.892c0.68,0,1.097,0,1.35,0c0.511-0.073,0.931-0.257,1.184-0.418c0.337-0.253,0.593-0.512,0.849-0.937
	c0.17-0.334,0.253-0.756,0.253-1.268c0-0.588-0.169-1.098-0.422-1.518c-0.34-0.434-0.68-0.766-1.269-0.934
	c-0.501-0.177-1.268-0.25-2.201-0.25h-3.636"/>
<path fill="#2D6001" d="M8.66,27.742c0.839-2.453,3.636-2.792,5.659-3.639l0.425-0.329v-1.609c1.187-1.274,3.136-2.46,4.402-2.88
	c0.754,0.42,2.026,0.42,2.784,0.42l0.852,0.763v0.847l0.754,0.851c0,0.335-0.331,0.756-0.331,1.18l0.76,0.759h0.752
	c0.848,0,2.457-1.604,3.306-1.604c-0.852-1.609-3.306-2.795-4.061-4.391c0.419-0.854,1.176-2.04,1.6-2.463
	c1.186,0,2.882,0.85,4.06,0.424c0-0.759-0.417-3.206-0.841-4.06c-0.336,0-0.757,0.424-1.188,0.424
	c-0.844-0.755-2.03-1.179-2.878-1.944c0.425-0.427,1.275-0.427,1.694-0.427c0.76-0.42,2.37-0.844,3.21-1.606
	c-0.417-0.417-1.6-1.265-2.03-1.265c0-0.762,0.43-1.186,0.852-1.606c0.337,0,0.761-0.341,1.178-0.341
	c0.765,0,1.609,0.341,2.37,0.341l0.846,0.844c0.42,0,0.847-0.844,0.847-1.186c1.179,0,2.708,0,3.555,0.762
	c0,0.424-0.427,0.762-0.427,1.186c1.272,1.265,2.457,3.297,4.063,2.45c0-2.03-1.606-3.212,0.423-5.242V2.788
	c2.38-1.258,5.251-2.45,7.619-2.788c0.434,0,0.854,0.338,1.188,0.338l1.269,1.188h2.367c0,0.841-1.188,2.444-1.95,3.294
	c-0.844,0-2.023,0.765-2.443,0.765c1.176,2.026,4.388-0.765,5.579-1.951c1.262,0,3.719-1.271,4.48-2.109
	c0.424,0.42,1.179,0.841,1.605,1.262c0,1.182-0.844,2.457-0.844,3.642c0.417,0.338,1.268,0.762,1.603,1.182
	c1.695,0,3.643-1.182,5.248-1.182c0.845,0.762,0.845,2.026,0.845,2.788c-0.845,0.424-2.03,0.844-2.45,1.271
	c0,1.521,2.029,2.371,2.87,3.127c0.431,0,1.188-0.752,1.188-0.752v-1.609l0.848-0.762l3.124,1.521v1.606
	c0,0-0.756,0.851-0.756,1.274c0.42,0.756,0.42,2.365,0,3.219c0.756,0.417,1.179,0.417,2.032-0.431c0-1.182,0.845-2.032,0.845-3.211
	l1.603-1.603c0.759,0,1.53,0.417,2.371,0.752c0,2.88,0.766,4.493,4.063,4.493c0,0.752-0.427,1.176-0.851,1.597
	c-2.029,0-4.059,0.762-6.424,0.762c0,0-0.762,0.847-0.762,1.268c-0.845,0-1.265,0.43-1.691,0.765c0,0.421,0.851,1.277,0.851,1.277
	c2.446,0,5.244-1.277,7.274,0.746v1.612c-0.424,0.424-1.277,0.845-1.688,1.186h-1.612c-0.338,0.421-1.176,0.759-1.527,1.186
	c-0.841-0.427-2.026-1.529-2.446-1.95c-1.274,0-3.216,0-4.397,0.421l1.182,1.103h1.604c1.191,1.18,3.218,2.033,4.403,3.301
	c0.841,0,2.453-0.427,3.63-0.427C81.576,31.386,82,31.718,82,32.571c-0.854,0-2.884,1.18-3.301,1.606v1.604l-0.765,0.756
	c-0.763,0-2.365,0.424-3.209,0.844c-1.274-0.844-2.033-2.45-3.216-3.632c-0.844,0.427-1.182,1.603-2.029,2.453h-1.609
	c-0.42-0.421-1.179-1.694-1.603-2.026c-1.188,0-2.033,1.176-2.371,2.026c-0.424,0-0.848,0.335-1.271,0.335
	c0,0.424-0.42,1.274-0.42,1.694c-1.186,0-2.03-2.032-3.216-2.032h-0.765c-0.841,0-1.6,1.608-2.871,1.608l-0.765-0.85v-1.606
	c0.765-0.421,2.036-1.176,2.46-2.358c-0.424,0-1.277-0.424-2.112-0.424c-1.944,1.938-1.523,5.242-3.136,6.851V45
	c2.788,2.874,5.248,2.874,8.378,4.48c-2.789,1.188-6.766,0-10.061,0.765c0,0-0.759-0.765-1.188-0.765h-1.605
	c-1.606,0.765-8.878,0.765-10.49,0c0-1.265,2.033-2.45,2.458-3.298c0.844,0,2.37-1.183,3.214-1.526
	c0-3.295,0.425-9.305-2.036-11.666l-0.754,0.755v2.454c0,0-0.849,0.759-1.27,0.759c-0.763-0.759-1.612-1.18-2.033-2.03
	c-0.336,0.421-1.528,1.606-1.528,2.03v0.85c0,0.424-1.178,0.756-1.606,0.756c-0.42-0.756-0.837-2.029-0.837-2.785
	c-0.427-0.43-1.189-0.851-1.612-1.277c-1.184,0.427-2.027,1.277-2.363,2.033c-2.033,0.424-4.48,0.844-6.854,0.844l-0.844-0.844
	v-0.756c0-1.277,3.636-1.606,4.393-1.606c0-0.427,0.424-0.85,0.424-1.182c0.849,0,1.186-0.424,2.03-0.424l0.852-0.854
	c0.76,0,1.522-0.335,1.946-0.759c-0.424-0.841-1.946-1.691-3.215-1.691c0-0.753-0.424-1.521-0.76-1.941
	c-0.849,0-1.272,0.421-2.03,0.421l-0.852,0.765c-0.754,0-1.942,0.417-2.784,0.417c-0.423,0.336-1.606,1.189-2.457,1.189
	c-0.418,0.42-1.179,0.841-1.6,1.268c-0.765-0.848-2.376-2.457-3.218-2.874C11.875,28.927,9.082,29.686,8.66,27.742 M28.454,25.292
	l-0.852-0.766h-3.553c0,1.612,1.184,2.036,2.37,2.375C27.181,26.901,28.791,26.135,28.454,25.292z M34.032,16.07
	c0.417,0,1.271-0.759,1.271-0.759c0-0.42-0.854-1.271-0.854-1.271c-1.183,0-2.36,0.851-3.546,0.851c0,1.179,0.425,4.814,0.762,6
	c0,0,0.841-0.844,1.177-0.844C32.847,18.444,34.032,17.255,34.032,16.07z M39.701,24.523c0,0,0.844-0.746,0.844-1.179
	c-0.844-0.424-2.03-0.759-2.363-1.609c-0.847,0-1.696,0.43-2.033,0.43c0,1.18,0.757,1.18,0.336,2.358
	c-0.757-0.332-1.609-0.332-2.366-0.332c0.336,0.674,1.188,1.944,1.609,2.365c0.757,0,1.181-0.424,1.609-0.845
	C38.178,25.716,39.367,24.868,39.701,24.523z M36.482,28.166l-0.757-0.845c-0.852,0-1.69,0.421-2.03,0.421l1.608,1.609
	C35.725,29.351,36.482,28.51,36.482,28.166z M33.695,26.98c-0.428,0-0.849-0.421-1.266-0.421l-0.34,0.421
	c0,0.341,0.34,0.762,0.34,1.186L33.695,26.98z M40.545,27.321c0.76,1.268,0.76,0.421,1.949,0.421c0-1.183-0.427-2.368-0.427-3.13
	C41.305,24.95,40.545,26.135,40.545,27.321z M46.967,31.716c0,0.854,0.34,1.609,0.765,2.46c0.428,0,1.183,0.332,1.613,0.332
	l3.205-3.551c0-0.762-0.762-1.947-0.762-2.364c-0.844,0.42-1.268,0.762-1.686,1.603c-0.758-0.421-1.188-0.841-1.188-2.026
	c0.851-0.424,0.851-0.845,0.851-2.03l-1.274-1.186C47.736,26.98,46.967,29.351,46.967,31.716z M46.129,26.559
	c0-0.424-0.763-1.271-0.763-1.271c-0.762,0.427-1.179,0.847-1.179,2.032l0.765,0.759C45.783,27.321,46.129,27.321,46.129,26.559z
	 M50.186,14.89c0,0-0.759-0.851-0.759-1.274c-0.424,0-1.268,0.423-1.611,0.423c0,0.427,0.344,0.851,0.344,1.186
	c-0.344,0-1.192,0.844-1.192,0.844c0.849,0.338,1.612,0,2.883,0C49.85,15.646,50.186,15.225,50.186,14.89z M45.706,12.01
	l-0.754-0.755c-0.765,0.424-0.765,1.609-0.428,2.362C45.363,13.189,46.129,12.864,45.706,12.01z M51.792,12.01l-0.841,0.854
	l0.841,0.752c0.759-0.752,2.371-1.941,1.53-3.554C52.133,10.49,51.792,10.831,51.792,12.01z M48.16,10.49
	c0,0.338,0.755,0.762,1.186,0.762c0-0.423,0.42-2.033,0.42-2.794l-0.42-0.417c-0.854-0.341-2.378,0.417-3.219,0.417
	c0.42,0.762,0.841,0.762,2.033,0.762V10.49z M44.521,17.255c0-0.335,0.427-1.185,0-1.185c0,0-0.761,0.426-1.188,0.426
	C43.333,16.924,44.184,17.255,44.521,17.255z M37.668,16.07c0.423,0,0.763-0.424,1.184-0.424c0-0.755-0.421-1.179-0.761-1.606
	c-0.423,0-1.186,0.851-1.186,0.851C36.906,15.311,37.668,16.07,37.668,16.07z M36.482,18.109c0,0,0.763-0.766,0.763-1.186
	c0,0-0.763-0.854-0.763-1.278c-0.757,0.424-1.179,1.695-1.179,2.463L36.482,18.109L36.482,18.109z M39.701,22.165
	c0.844-0.851,0-1.609-0.765-2.46C38.515,20.555,39.367,21.735,39.701,22.165z M60.258,33.41c0.329,0,0.752-0.42,1.176-0.42
	c0-0.848,0.762-1.609,1.183-2.036c-0.421-0.762-2.788-1.183-3.551-0.762l-0.423,0.427v1.526
	C59.493,32.569,59.829,32.569,60.258,33.41z M55.437,29.771c0.332,0,1.179-0.762,1.603-0.762c0-1.268-0.424-1.268-1.277-1.686
	c-0.328,0-1.094,0.845-1.514,0.845C54.249,29.433,54.668,29.771,55.437,29.771z M60.682,25.292c0,0,0.752,0.847,0.752,1.271
	c0.762,0,1.183-0.424,1.606-0.844c0-0.766,0-1.941-0.424-2.795c-0.421,0-0.759,0.856-0.759,1.183
	c-0.848-0.759-0.848-1.521-1.176-2.368c-0.854,0.43-1.612,0.851-1.612,2.042C59.493,24.103,60.258,24.523,60.682,25.292z
	 M54.581,24.523c0-0.332,0.344-0.746,0.344-1.179l-0.344-0.424c-0.332,0-0.756,0.424-1.177,0.424L54.581,24.523z M51.792,18.109
	c0.759,0,1.947-0.766,2.713-0.766c-0.766-0.848-1.521-0.42-2.713-0.42V18.109z M64.653,16.924c-0.339,0.335-0.339,0.755-0.339,1.186
	c1.609,0,3.975,0,5.16-0.431c-0.424-0.755-0.762-0.755-2.03-0.755c0.421,0,0.845-0.428,1.269-0.428
	C67.862,15.311,65.923,16.07,64.653,16.924z M56.616,12.01c-0.762,0.854-1.523,0.854-1.179,2.457
	c0.417-0.427,1.179-0.85,1.603-1.277C57.04,12.864,56.616,12.434,56.616,12.01z M59.829,13.616c0.755,0,1.182,0.423,1.944,0
	c0-0.335-0.763-1.521-1.186-1.521h-0.759c-0.756-0.42-0.332-0.844-1.606-0.42c0,0.42,0.427,1.186,0.427,1.603
	C59.07,13.281,59.493,13.616,59.829,13.616z M65.07,22.5c0.342,0,1.188,0.342,1.533,0.342c0,0,0.841-0.68,1.262-0.68
	c0.424,0.335,1.186,0.68,2.033,0.68c0.762-0.68,0.42-0.68,0.42-1.53c-0.844,0.421-1.268-0.424-1.605-1.18
	c-0.848,0-1.688,0.336-2.447,0.336C65.415,21.314,64.653,21.314,65.07,22.5"/>
<path fill="#1D1D1B" d="M196.005,46.862c0.082,0,0,0.592-0.335,1.853c-0.424,1.189-0.684,1.865-0.936,1.786
	c-1.354,0-4.313,1.012-8.797,3.298c-3.553,1.69-15.052,7.442-19.283,4.228c-1.016-1.012-1.691-2.276-2.036-3.978
	c-1.941-8.799-1.095-17.847-3.712-26.304c-0.68-2.286-1.018-3.472-1.018-3.639c0.258-0.841,0.594-2.026,0.936-3.469
	c0.082-0.079,0.164-0.167,0.25-0.167c0.427,0,1.103,1.444,2.031,4.397c2.194,7.36,1.777,15.308,2.619,22.842
	c0.252,2.535,0.764,7.78,4.142,7.438c-1.183-2.703-1.687-4.396-1.687-5.157c0-2.029,0.592-3.724,1.856-5.241
	c1.271-1.442,2.876-2.286,4.817-2.378c1.101-0.079,4.064,0.601,8.881,1.865C189.063,45.671,193.21,46.517,196.005,46.862
	 M187.709,49.398c-1.008-0.083-3.123-0.684-6.342-1.604c-2.782-0.933-5.248-1.356-7.184-1.356c-0.595,0-1.183,0-1.779,0.079
	c-0.502,0.086-1.187,0.421-1.862,1.101c-0.676,0.677-1.015,1.274-1.015,1.78c0,0.17,0.086,0.249,0.086,0.338
	c0.594,1.015,1.353,2.707,2.367,5.072C177.055,53.963,182.303,52.187,187.709,49.398z M155.659,53.963
	c0-0.68-0.253-1.356-0.595-1.944c-0.336-0.508-0.76-0.847-1.183-0.847c-0.848,0-1.43,0.249-1.948,0.677
	c0.849,0.756,1.354,1.18,1.524,1.269C154.049,53.625,154.811,53.881,155.659,53.963z M138.913,50.245
	c-1.183-0.338-2.286-0.506-3.377-0.506c-0.765-0.088-1.526,0.082-2.463,0.253c0.513,0.418,1.189,1.098,2.289,2.03
	C137.047,51.086,138.239,50.501,138.913,50.245z M-31.518,52.271c-0.425,2.287-0.93,3.893-1.522,4.65
	c-0.599,0.848-2.703,2.283-6.265,4.314c-4.056,2.365-8.032,4.146-11.926,5.496c-2.621,0.334-7.183,1.015-13.531,1.943
	c-0.253,0-2.03-0.076-1.949-0.168l18.779-6.77c3.465-1.182,6.764-2.873,10.15-4.731c3.386-1.938,5.073-3.13,4.992-3.726
	c-0.169-0.588-0.673-2.107-1.606-4.731c-0.763-2.112-1.192-3.974-1.275-5.501c-0.337,0-0.59-0.079-0.501-0.168
	c0.254-1.1,0.501-2.2,0.844-3.218c0.169-0.588,0.337-0.588,0.673-0.073c1.014,1.521,1.949,2.618,2.629,3.38
	c0.253,0.335,0.424,0.506,0.424,0.591c0,0.165-0.251,0.165-0.848,0.089c-0.083-0.089-0.423-0.089-1.013-0.256
	c0.078,0.167,0.42,1.356,1.266,3.807C-31.518,49.148-31.344,50.83-31.518,52.271z M123.01,61.069
	c-0.591,0.842-1.186,1.855-1.015,2.957c0,0.256,0.177,0.512,0.424,0.591c0.433,0.26,1.015-0.335,1.273-0.591
	c0.079-0.086,0.079,0.17,0.079,0.256c-0.079,0.595-0.335,1.101-0.841,1.441c-0.174,0.164-0.595,0.164-0.854,0.072
	c-0.759-0.253-0.841-1.098-0.759-1.773c0.171-1.271,0.93-2.703,1.954-3.721c-1.612-0.25-3.137-1.013-4.654-2.703
	c-0.598-0.595-1.273-1.688-2.029-3.216c-0.595-1.104-1.104-1.688-1.694-1.688c-0.759-0.088-1.777,0.51-3.045,1.609
	c-1.265,1.098-2.194,2.194-2.706,3.297c-0.841,2.027-1.606,4.139-2.453,6.172c-0.851,1.953-2.03,2.877-3.304,2.877
	c-1.521,0-2.874-1.012-4.06-3.045c-1.347-2.189-1.941-4.908-1.941-8.033c0-0.93,0.082-2.032,0.335-3.461
	C80.972,60.396-8.77,82.132-7.669,48.298c0-1.268,0-3.202-0.42-6.004c-0.34,4.65-2.793,6.857-7.194,7.189
	c0,0.089-0.081,0.68,0.088,1.78c0.081,1.015,0.168,1.691,0.168,1.95c-0.168,2.36-0.68,4.396-1.609,6.001
	c-0.501,1.018-2.283,2.367-5.237,4.314c-0.092,0-0.092,0.082-0.176,0.17c-0.593,0.852-1.272,1.857-1.103,2.96
	c0.09,0.253,0.259,0.513,0.51,0.671c0.34,0.18,0.933-0.418,1.272-0.671c0.081,0,0.081,0.178,0,0.342
	c-0.083,0.506-0.253,1.009-0.757,1.351c-0.259,0.168-0.603,0.256-0.855,0.082c-0.757-0.252-0.844-1.105-0.844-1.777
	c0.168-0.85,0.596-1.857,1.097-2.709c-0.501,0.342-1.178,0.763-1.777,1.107c-4.652,2.616-9.81,4.559-14.374,6.088
	c-2.115,0.68-13.025,1.855-14.969,1.773c-0.176,0,0.167-0.161,0.427-0.253c6.172-1.771,12.347-4.056,18.686-6.681
	c1.949-0.758,5.165-2.033,9.472-4.232c1.859-1.01,3.721-2.111,5.585-3.209c2.033-1.188,2.965-2.203,3.043-2.962
	c0.172-1.265-0.337-3.127-1.353-5.488c-1.1-2.463-1.598-3.643-1.598-3.643c0.161-1.438,0.417-2.713,0.928-3.977
	c0.333,0.082,0.59,0.67,1.263,1.441c3.892,3.629,8.458-0.513,8.967-4.063c0.081-0.506,0.176-1.862,0.849-2.286
	c0.427,0.509,0.68,1.436,0.847,2.542c0.253,1.35,0.424,4.23,1.013,8.615c3.632,25.883,89.069,6.948,104.959,0
	c0.26-2.532-0.667-5.064-2.193-6.934l2.108-3.636c2.21,2.624,3.219,5.919,2.289,9.052c-0.339,1.353-1.527,2.959-2.706,4.142
	c0,0.592,0,1.186-0.086,1.865c0,0.673-0.079,1.262-0.079,1.686c0,1.776,0.332,3.561,1.009,5.248
	c0.762,2.193,1.865,3.303,3.136,3.303c1.183,0,2.197-0.68,2.874-2.025c0.762-1.611,1.268-3.218,1.947-4.827
	c1.019-2.278,2.197-4.233,3.551-5.662c1.612-1.609,3.048-2.457,4.486-2.457c0.68,0,1.432,0.592,2.2,1.941
	c1.268,1.946,1.944,3.051,2.118,3.219c3.974,4.647,7.774,2.703,12.086,0.171l-0.079-0.171c-1.95-1.521-3.392-2.286-4.315-2.286
	c-0.759,0-1.529,0.254-2.364,0.68c-0.089,0-0.171,0-0.171,0c-0.082,0-0.168-0.088-0.168-0.17c0-0.174,0.168-0.677,0.497-1.441
	c0.43-0.759,0.601-1.262,0.677-1.603c0-0.168,0.259-0.336,0.683-0.68c3.304-1.354,6.26-2.03,9.055-2.03c0.335,0,0.588,0,0.841,0
	c2.624,0.342,4.913,0.933,6.848,1.954c0.43,0.168,0.598,0.42,0.512,0.591l-1.271,3.127c-0.841,0.256-2.453,1.018-4.818,2.115
	c1.015,0.68,1.691,1.104,2.282,1.353c3.807,1.944,5.922,1.192,8.283-2.282c1.021-1.438,1.612-2.2,1.865-2.2
	c0.086,0,0.165,0.079,0.26,0.174c1.269-2.457,2.699-3.725,4.225-3.725c1.273,0,2.289,0.763,2.959,2.279
	c0.506,1.354,0.851,2.966,0.851,4.828c0,1.013-0.26,1.938-0.677,2.785c-0.506,1.012-1.094,1.438-1.773,1.438
	c-0.679,0-1.783-0.335-3.215-1.015c-1.697-0.852-2.966-1.771-3.722-2.877c-4.571,7.779-7.947,5.918-14.631,1.021
	c-3.56,2.106-7.278,4.985-10.996,4.646C123.431,60.558,123.178,60.808,123.01,61.069z M-49.366,55.319
	c-2.871,3.551-10.321,3.377-10.658-2.457c-0.083-0.42-0.083-0.932,0-1.436c-3.133,1.855-7.105,3.807-11.253,5.416
	c-0.249,0.249-0.501,0.499-0.677,0.842c-0.676,0.85-1.272,1.864-1.103,2.965c0,0.252,0.259,0.502,0.427,0.592
	c0.428,0.248,1.016-0.336,1.272-0.592c0.169-0.088,0.081,0.16,0.081,0.252c-0.081,0.588-0.249,1.104-0.847,1.431
	c-0.169,0.174-0.506,0.174-0.759,0.088c-0.761-0.335-0.931-1.097-0.844-1.862c0.165-1.179,0.929-2.535,1.854-3.55
	c-9.381,3.472-20.123,5.159-27.484,1.097c-2.7-1.438-4.134-4.399-4.309-7.604c0-0.933,0.081-2.206,0.504-3.639
	c0.341-1.441,0.769-2.532,1.272-3.386c0-0.082,0.089-0.171,0.089-0.171c-1.361-0.936-1.525-2.709-1.442-4.313
	c0.509-3.888,3.555-8.548,6.767-10.827c-0.506,1.268-1.603,2.367-2.461,3.55c-1.515,2.118-3.121,4.568-2.7,7.36
	c0.087,0.68,0.593,1.268,1.186,1.605c1.013,0.506,2.447-0.841,3.21-1.605c0.256-0.083,0.085,0.512,0.085,0.765
	c-0.169,1.347-0.678,2.703-2.031,3.462c-0.504,0.417-1.437,0.506-2.11,0.342c0-0.089,0-0.089-0.083-0.089c0,0.089,0,0.164,0,0.253
	c-0.757,1.436-1.013,2.874-0.93,4.233c0.172,2.535,1.522,4.481,3.976,5.75c11.843,5.922,27.829-0.933,38.903-6
	c0.424,0,0.68,0.076,0.68,0.499c0,0.51,0,1.354-0.081,2.536c-0.253,3.386,5.669,3.896,7.776,2.63
	c1.606-1.016,2.286-1.783,2.202-2.118c-0.596-2.193-1.27-4.142-2.962-5.412l1.181-4.565C-47.676,45.25-45.643,50.751-49.366,55.319z
	 M-66.621,23.679c0-0.339-0.256-0.671-0.847-1.098c-0.506-0.335-1.014-0.506-1.35-0.506c-0.759,0-1.102,0.424-1.102,1.354
	c0,0.762,0.596,1.094,1.778,1.094C-67.042,24.523-66.533,24.27-66.621,23.679z M-65.516,23.174c0,0.844-0.256,1.609-0.852,2.282
	c-0.593,0.68-1.27,1.021-2.023,1.021c-1.443,0.079-2.117-0.762-2.208-2.286c0-1.1,0.253-2.029,0.762-2.703
	c0.423-0.762,1.103-1.106,1.86-1.106c0.673-0.085,1.186,0.25,1.693,0.848c0.506,0.594,0.762,1.271,0.762,2.032v-0.088H-65.516z
	 M-54.021,39.076c0-0.93-0.162-1.436-0.498-1.436c-0.34,0-0.68,0.506-0.933,1.526c-0.34,1.095-0.596,2.283-0.849,3.548h-0.504
	c-0.34-1.691-0.852-2.871-1.35-3.465c-0.175,0.68-0.512,1.015-0.933,1.015c-0.343,0-0.68-0.161-1.017-0.417
	c-0.849-0.933-0.68-2.963,0.844-2.963c0.685,0,1.186,0.5,1.69,1.433c0.515,1.186,0.933,2.029,1.102,2.541
	c0.337-1.861,0.677-3.215,1.017-4.147c0.42-0.926,0.844-1.438,1.353-1.438c0.596,0,0.933,0.513,0.933,1.523
	c0,0.342-0.172,0.766-0.42,1.356C-53.586,38.402-53.759,38.655-54.021,39.076z M-80.658,25.627
	c-0.593,0.854-1.192,1.862-1.017,2.962c0,0.339,0.172,0.506,0.424,0.674c0.428,0.171,1.013-0.335,1.27-0.674
	c0.091,0,0.091,0.257,0.091,0.339c-0.095,0.506-0.348,1.1-0.855,1.356c-0.253,0.253-0.593,0.253-0.846,0.161
	c-0.764-0.329-0.841-1.094-0.764-1.856c0.176-1.521,1.437-3.462,2.713-4.395C-79.813,24.783-80.318,25.203-80.658,25.627z
	 M-81.169,45.51c-0.589,0.841-1.266,1.854-1.102,3.041c0.088,0.253,0.259,0.506,0.512,0.598c0.336,0.167,0.933-0.342,1.269-0.68
	c0.084,0,0.084,0.246,0,0.335c-0.082,0.509-0.256,1.101-0.762,1.438c-0.251,0.164-0.599,0.164-0.851,0.079
	c-0.754-0.335-0.842-1.101-0.842-1.855c0.253-1.53,1.438-3.469,2.706-4.313C-80.402,44.656-80.823,45.092-81.169,45.51z
	 M-90.296,20.976c1.263-0.845,4.478-0.509,5.749-0.086c1.772,0.601-1.443,7.363-4.486,8.037l-1.862,0.335
	c-0.081,0.089,3.972-3.215,4.905-4.395c0.34-0.506-3.555-0.253-4.226-0.253c-0.591,0-1.864,1.012-2.117,1.433
	C-92.409,26.385-92.251,22.25-90.296,20.976z M-88.023,45.418c0-0.93-0.161-1.433-0.498-1.433c-0.34,0-0.596,0.503-0.933,1.524
	c-0.336,1.012-0.589,2.2-0.842,3.462h-0.427c-0.424-1.688-0.849-2.789-1.356-3.387c-0.172,0.68-0.506,1.019-0.846,1.019
	c-0.34,0-0.68-0.168-1.016-0.509c-0.848-0.848-0.677-2.789,0.76-2.789c0.678,0,1.188,0.418,1.694,1.351
	c0.507,1.186,0.847,2.029,1.1,2.459c0.25-1.779,0.596-3.13,0.93-4.065c0.42-0.844,0.841-1.354,1.353-1.354
	c0.593,0,0.847,0.51,0.847,1.53c0,0.25-0.087,0.759-0.336,1.354C-87.68,44.747-87.764,44.997-88.023,45.418z M-37.951,20.047
	l-44.15,19.288l-2.192,2.703l44.152-19.117L-37.951,20.047z M153.964,20.468L107.62,40.682l-2.118,3.472l46.354-20.139
	L153.964,20.468z M-25.933,32.145c-0.933,1.269-1.781,2.618-1.525,4.228c0,0.335,0.337,0.68,0.673,0.847
	c0.516,0.339,1.35-0.427,1.777-0.847c0.085-0.086,0.085,0.253,0.085,0.42c-0.166,0.766-0.419,1.524-1.183,1.947
	c-0.336,0.257-0.76,0.257-1.182,0.175c-1.013-0.424-1.184-1.606-1.104-2.628c0.256-2.197,1.949-4.812,3.811-6.092
	C-24.836,30.872-25.509,31.545-25.933,32.145z M-14.771,33.072c2.283,1.776,2.026,5.494,1.183,8.036
	c0.34-0.591,0.34-0.427,0.68-1.183c1.013-2.545,0.673-6.259-1.862-7.957C-14.852,32.057-14.771,32.73-14.771,33.072z M-15.704,20.89
	c1.272-0.844,4.488-0.506,5.754-0.079c1.773,0.589-1.442,7.271-4.484,7.945l-1.859,0.433c0,0,3.973-3.218,4.902-4.403
	c0.34-0.513-3.547-0.26-4.224-0.26c-0.589,0-1.859,1.021-2.031,1.445C-17.814,26.306-17.647,22.165-15.704,20.89z M152.956,41.02
	c0-0.595-0.085-0.92-0.345-0.92c-0.254,0-0.418,0.328-0.588,1.011c-0.254,0.759-0.424,1.518-0.602,2.45h-0.332
	c-0.256-1.188-0.598-2.032-0.933-2.367c-0.082,0.423-0.335,0.68-0.591,0.68c-0.253,0-0.506-0.086-0.677-0.342
	c-0.591-0.588-0.509-1.938,0.503-1.938c0.43,0,0.85,0.253,1.188,0.929c0.338,0.845,0.594,1.426,0.762,1.686
	c0.174-1.186,0.422-2.105,0.674-2.785c0.26-0.598,0.588-0.933,0.934-0.933c0.417,0,0.585,0.335,0.585,1.012
	c0,0.164-0.083,0.506-0.253,0.926C153.288,40.596,153.117,40.77,152.956,41.02z M160.564,59.129l-13.023,5.915l-1.101,1.523
	l12.943-5.832L160.564,59.129z M194.988,25.374l-26.383,11.508l-1.187,1.944l26.3-11.423L194.988,25.374z M119.965,41.108
	c-0.676,1.015-1.435,2.283-1.268,3.639c0,0.25,0.253,0.589,0.592,0.759c0.423,0.247,1.179-0.417,1.518-0.854
	c0.082,0,0.082,0.342,0.082,0.437c-0.158,0.664-0.421,1.347-1.006,1.682c-0.253,0.168-0.677,0.257-1.018,0.089
	c-0.93-0.342-1.019-1.354-0.93-2.207c0.164-1.85,1.694-4.135,3.212-5.238C120.987,40.005,120.383,40.52,119.965,41.108z
	 M150.076,28.845c-0.591,0.841-1.268,1.858-1.101,3.044c0.086,0.253,0.26,0.496,0.51,0.588c0.338,0.253,0.929-0.335,1.268-0.588
	c0.082-0.089,0.082,0.168,0.082,0.253c-0.082,0.588-0.342,1.101-0.848,1.436c-0.25,0.167-0.594,0.167-0.841,0.085
	c-0.765-0.256-0.847-1.1-0.847-1.865c0.252-1.521,1.435-3.468,2.788-4.4C150.834,27.909,150.414,28.422,150.076,28.845z
	 M137.132,34.343c-1.176,1.604-2.276,3.465-2.029,5.498c0.088,0.5,0.433,1.012,0.936,1.176c0.677,0.431,1.765-0.594,2.361-1.176
	c0.174,0,0.086,0.417,0.086,0.585c-0.171,1.021-0.588,2.036-1.518,2.624c-0.424,0.256-1.106,0.342-1.612,0.177
	c-1.354-0.601-1.524-2.036-1.436-3.383c0.335-2.962,2.624-6.43,4.989-8.128C138.574,32.73,137.727,33.499,137.132,34.343z
	 M130.62,24.27c0-1.009-0.167-1.426-0.588-1.426c-0.253,0-0.601,0.5-0.854,1.518c-0.335,1.012-0.588,2.2-0.848,3.551h-0.499
	c-0.338-1.774-0.854-2.874-1.347-3.551c-0.184,0.765-0.516,1.097-0.933,1.097c-0.339,0-0.68-0.167-1.024-0.506
	c-0.841-0.847-0.67-2.873,0.844-2.873c0.601,0,1.188,0.423,1.701,1.435c0.503,1.18,0.93,2.033,1.097,2.457
	c0.332-1.777,0.677-3.216,1.009-4.145c0.434-0.933,0.856-1.356,1.366-1.356c0.591,0,0.923,0.509,0.923,1.521
	c0,0.263-0.171,0.765-0.424,1.356C131.043,23.514,130.87,23.85,130.62,24.27z M189.15,34.425c-0.928,1.183-1.775,2.628-1.611,4.233
	c0.092,0.335,0.342,0.68,0.684,0.845c0.594,0.341,1.354-0.506,1.776-0.933c0.174,0,0.174,0.341,0.086,0.509
	c-0.086,0.765-0.339,1.521-1.101,1.944c-0.346,0.256-0.848,0.256-1.18,0.171c-1.104-0.421-1.188-1.6-1.188-2.624
	c0.335-2.197,2.022-4.815,3.889-6.178C190.251,33.154,189.575,33.749,189.15,34.425z M184.074,24.27
	c0-1.009-0.164-1.426-0.499-1.426c-0.343,0-0.595,0.5-0.933,1.518c-0.34,1.015-0.593,2.2-0.842,3.551h-0.434
	c-0.424-1.774-0.93-2.874-1.43-3.551c-0.176,0.765-0.513,1.097-0.854,1.097c-0.424,0-0.759-0.167-1.102-0.506
	c-0.846-0.847-0.676-2.873,0.854-2.873c0.677,0,1.269,0.423,1.771,1.435c0.514,1.18,0.849,2.033,1.013,2.457
	c0.339-1.777,0.683-3.216,1.019-4.145c0.424-0.933,0.848-1.356,1.35-1.356c0.599,0,0.934,0.509,0.934,1.521
	c0,0.263-0.164,0.765-0.421,1.356C184.504,23.514,184.333,23.85,184.074,24.27z M117.598,27.66c-0.93,0-1.274-0.592-2.03-0.68
	c-1.015,1.691-2.361,3.386-3.974,4.564c-1.777,1.445-3.472,2.88-5.672,3.561h-0.089c0.253-0.851,7.79-6.431,8.805-8.29
	c-0.085-0.847-1.268-0.933-1.268-1.865c0-1.1,0.592-1.855,1.183-2.785c0.171-0.512-0.424-1.53,0.588-1.694
	c1.859,0.93,2.959,2.795,3.56,4.568C119.037,25.801,118.353,27.321,117.598,27.66z M117.253,25.292
	c-0.335,0.082-0.588-0.165-0.759-0.424c0-0.253,0.174-0.598,0.427-0.674c0.25-0.177,0.424,0.253,0.594,0.332
	C117.683,24.868,117.598,25.292,117.253,25.292z M115.315,24.615c-0.338,0-0.506-0.168-0.591-0.421
	c-0.086-0.341,0.338-0.512,0.512-0.601c0.332,0,0.503,0.184,0.582,0.424C115.9,24.359,115.568,24.523,115.315,24.615z
	 M168.089,21.915c3.47,2.611,3.048,8.116,1.862,11.755c0.503-0.848,0.421-0.598,0.933-1.698c1.437-3.636,1.013-9.124-2.624-11.669
	C168.007,20.468,168.182,21.491,168.089,21.915z M-71.697,43.647l2.208-2.286l3.547,3.386l-2.363,2.618c0,0-1.949-1.609-3.046-2.618
	l-1.953,2.191c0,0-3.88-3.291-3.8-3.291l2.623-2.71L-71.697,43.647z M-95.207,66.649l2.622-2.623l2.795,2.623l2.197-2.289
	l3.552,3.39l-2.37,2.713c0,0-1.946-1.696-3.043-2.634l-1.946,2.207C-91.399,70.036-95.297,66.731-95.207,66.649z M96.54,22.753
	l2.617-2.621l3.56,3.298l-1.782,2.026l3.044,2.877l-2.45,2.624c0,0-3.807-3.297-3.724-3.297l1.947-2.033
	C98.651,24.694,96.451,22.844,96.54,22.753z M-10.883,64.791l1.949-1.95c-1.014-0.93-3.212-2.871-3.212-2.871l2.623-2.705
	l3.555,3.383l-1.782,2.025l3.043,2.874l-2.363,2.627C-7.073,68.174-10.96,64.877-10.883,64.791z M-38.792,29.686l2.625-2.618
	l3.551,3.377l-2.367,2.627C-34.986,33.072-38.876,29.771-38.792,29.686z M44.264,70.463l2.619-2.713l3.556,3.388l-2.45,2.619
	C47.989,73.754,44.184,70.463,44.264,70.463z M179.591,65.297l2.63-2.624l3.555,3.391l-2.457,2.613
	C183.314,68.677,179.516,65.383,179.591,65.297"/>
</svg>
